<?xml version="1.0" encoding="UTF-8" standalone="no"?>
<svg
   xmlns:dc="http://purl.org/dc/elements/1.1/"
   xmlns:cc="http://creativecommons.org/ns#"
   xmlns:rdf="http://www.w3.org/1999/02/22-rdf-syntax-ns#"
   xmlns:svg="http://www.w3.org/2000/svg"
   xmlns="http://www.w3.org/2000/svg"
   version="1.1"
   id="svg3485"
   viewBox="0 0 15 15"
   height="15"
   width="15">
  <defs
     id="defs3487" />
  <metadata
     id="metadata3490">
    <rdf:RDF>
      <cc:Work
         rdf:about="">
        <dc:format>image/svg+xml</dc:format>
        <dc:type
           rdf:resource="http://purl.org/dc/dcmitype/StillImage" />
        <dc:title></dc:title>
      </cc:Work>
    </rdf:RDF>
  </metadata>
  <g
     transform="translate(-366.61508,-524.29517)"
     id="layer1">
    <circle
       id="path3470"
       style="opacity:1;fill:#fffa72;fill-opacity:1;stroke:#404040;stroke-width:1;stroke-linecap:round;stroke-linejoin:round;stroke-miterlimit:4;stroke-dasharray:none;stroke-dashoffset:0;stroke-opacity:1"
       cx="374.11508"
       cy="531.79517"
       r="7" />
    <path
       id="path3501"
       d="m 374.11508,526.79515 c -2.208,0 -4,1.792 -4,4 0,1.47845 0.80621,2.74516 2,3.4375 l 0,2.5625 c 1,1 3,1 4,0 l 0,-2.5625 c 1.19379,-0.69234 2,-1.95905 2,-3.4375 0,-2.208 -1.792,-4 -4,-4 z"
       style="opacity:1;fill:#ffffff;fill-opacity:1;stroke:#404040;stroke-width:1;stroke-linecap:round;stroke-linejoin:round;stroke-miterlimit:4;stroke-dasharray:none;stroke-dashoffset:0;stroke-opacity:1" />
    <path
       style="opacity:1;fill:none;fill-opacity:1;stroke:#404040;stroke-width:1;stroke-linecap:round;stroke-linejoin:round;stroke-miterlimit:4;stroke-dasharray:none;stroke-dashoffset:0;stroke-opacity:1"
       d="m 374.10609,535.54514 c 0.75299,0.002 1.50699,-0.24799 2.00899,-0.74999"
       id="path3506" />
    <path
       style="opacity:1;fill:#c1c1c1;fill-opacity:1;stroke:#404040;stroke-width:1;stroke-linecap:round;stroke-linejoin:round;stroke-miterlimit:4;stroke-dasharray:none;stroke-dashoffset:0;stroke-opacity:1"
       d="m 372.11508,534.23265 0,2.5625 c 1,1 3,1 4,0 l 0,-2.5625"
       id="path3510" />
    <path
       id="path3512"
       d="m 376.11508,534.29515 c -0.5,-0.5 -1.25,-0.75 -2,-0.75 -0.75,0 -1.5,0.25 -2,0.75"
       style="opacity:1;fill:#c1c1c1;fill-opacity:1;stroke:#aaaaaa;stroke-width:1;stroke-linecap:round;stroke-linejoin:round;stroke-miterlimit:4;stroke-dasharray:none;stroke-dashoffset:0;stroke-opacity:1" />
    <path
       id="path3508"
       d="m 374.11508,533.79515 1,-2 0,-2 -2,0 0,2"
       style="opacity:1;fill:none;fill-opacity:1;stroke:#404040;stroke-width:1;stroke-linecap:round;stroke-linejoin:round;stroke-miterlimit:4;stroke-dasharray:none;stroke-dashoffset:0;stroke-opacity:1" />
    <path
       style="opacity:1;fill:none;fill-opacity:1;stroke:#404040;stroke-width:1;stroke-linecap:round;stroke-linejoin:round;stroke-miterlimit:4;stroke-dasharray:none;stroke-dashoffset:0;stroke-opacity:1"
       d="m 374.11508,526.79515 c -2.208,0 -4,1.792 -4,4 0,1.47845 0.80621,2.74516 2,3.4375 l 0,2.5625 c 1,1 3,1 4,0 l 0,-2.5625 c 1.19379,-0.69234 2,-1.95905 2,-3.4375 0,-2.208 -1.792,-4 -4,-4 z"
       id="path3517" />
    <path
       style="opacity:1;fill:none;fill-opacity:1;stroke:#404040;stroke-width:1;stroke-linecap:round;stroke-linejoin:round;stroke-miterlimit:4;stroke-dasharray:none;stroke-dashoffset:0;stroke-opacity:1"
       d="m 374.12648,535.10763 c 0.74619,-0.003 1.49113,-0.25251 1.9886,-0.74998"
       id="path3519" />
  </g>
</svg>
