<?xml version="1.0" encoding="UTF-8" standalone="no"?>
<svg
   xmlns:dc="http://purl.org/dc/elements/1.1/"
   xmlns:cc="http://creativecommons.org/ns#"
   xmlns:rdf="http://www.w3.org/1999/02/22-rdf-syntax-ns#"
   xmlns:svg="http://www.w3.org/2000/svg"
   xmlns="http://www.w3.org/2000/svg"
   x="0px"
   y="0px"
   version="1.1"
   viewBox="0 0 459.999 324.102"
   xml:space="preserve"
   enable-background="new 0 0 459.999 324.102"
   id="Layer_1"><defs
     id="defs12" /><g
     style="fill:#ffffff;fill-opacity:1"
     id="path3337"><path
       style="fill:#ffffff;fill-opacity:1"
       id="path4"
       fill="#FFFFFF"
       d="m230 10c-121.44 0-220 43.457-220 97 0 47.366 77.131 86.835 179 95.312 9.029 98.268 77.031 108.16 77.031 108.16s-28.55-34.51-33.62-106.47c120.33-0.57 217.59-43.81 217.59-97 0-53.543-98.56-97-220-97z" /><path
       style="fill:#ffffff;fill-opacity:1"
       id="path6"
       fill="#010101"
       d="m264.59 320.36c-1.114-0.179-19.869-3.02-40.002-19.366-19.063-15.392-38.65-43.123-44.642-89.475-35.781-3.6-68.419-10.958-95.861-21.239-29.513-11.112-53.123-25.449-68.098-43.165-9.942-11.77-16.01-25.49-15.991-40.12-0.013-16.57 7.719-31.844 20.083-44.669 12.411-12.901 29.583-23.889 50.342-33.06 41.515-18.274 97.645-29.246 159.58-29.271v20c-44.642-0.006-86.09 6.011-120.12 16.156-34.043 10.088-60.59 24.521-75.368 40.024-9.912 10.382-14.501 20.619-14.512 30.82 0.017 9.052 3.591 18.035 11.297 27.248 7.676 9.158 19.474 18.168 34.657 26.143 30.359 16.01 74.02 27.832 123.87 31.959l8.361 0.695 0.769 8.354c3.769 40.404 17.549 63.761 31.489 77.94 4.038 4.09 8.132 7.415 12.057 10.113-8.349-18.586-17.402-46.727-20.074-84.747l-0.752-10.652 10.68-0.04c44.231-0.203 85.24-6.32 118.88-16.49 33.653-10.111 59.861-24.487 74.44-39.893 9.776-10.318 14.304-20.482 14.316-30.619-0.013-10.2-4.601-20.438-14.512-30.819-9.863-10.308-24.925-20.222-43.982-28.608-38.12-16.842-92-27.6-151.51-27.573v-20c46.438 0.006 89.636 6.212 125.83 16.989 36.186 10.838 65.45 26.032 84.085 45.341 12.364 12.825 20.095 28.099 20.082 44.669 0.013 16.46-7.619 31.648-19.837 44.416-12.267 12.841-29.238 23.792-49.766 32.955-38.616 17.168-90.036 27.975-147.08 29.461 6.521 60.195 29.744 89.394 30.426 90.275l-0.001 0.001 16.546 19.995-25.7-3.76z" /></g><metadata
     id="metadata8"><rdf:RDF><cc:Work><dc:format>image/svg+xml</dc:format><dc:type
           rdf:resource="http://purl.org/dc/dcmitype/StillImage" /><cc:license
           rdf:resource="http://creativecommons.org/licenses/publicdomain/" /><dc:publisher><cc:Agent
             rdf:about="http://openclipart.org/"><dc:title>Openclipart</dc:title></cc:Agent></dc:publisher><dc:title></dc:title><dc:date>2008-06-29T02:35:14</dc:date><dc:description>A set of speech bubbles in .svgz. If you have your software set the right way, the stroke won't be distorted or capped off when you resize it. Unfortunately, there is no way to change the position of the spikes. Additional bubbles are coming later.</dc:description><dc:source>https://openclipart.org/detail/19086/speech-bubbles-by-ibdjl95-19086</dc:source><dc:creator><cc:Agent><dc:title>ibdjl95</dc:title></cc:Agent></dc:creator><dc:subject><rdf:Bag><rdf:li>bubbles</rdf:li><rdf:li>graphic</rdf:li><rdf:li>speech</rdf:li><rdf:li>svgz</rdf:li></rdf:Bag></dc:subject></cc:Work><cc:License
         rdf:about="http://creativecommons.org/licenses/publicdomain/"><cc:permits
           rdf:resource="http://creativecommons.org/ns#Reproduction" /><cc:permits
           rdf:resource="http://creativecommons.org/ns#Distribution" /><cc:permits
           rdf:resource="http://creativecommons.org/ns#DerivativeWorks" /></cc:License></rdf:RDF></metadata></svg>